<svg xmlns="http://www.w3.org/2000/svg" viewBox="0 0 512 512" role="img" aria-label="ClimbCrew">
  <rect width="512" height="512" rx="96" fill="#fff"/>
  <g fill="#4aa3df" stroke="#fff" stroke-width="8">
    <path d="M72 120c18-26 65-45 98-29 23 11 18 42-9 55-36 18-70 24-89 5-9-9-8-20 0-31z"/>
    <path d="M329 78c31-14 79-1 96 25 13 20-8 43-37 39-34-5-69-17-71-40-1-10 4-19 12-24z"/>
    <path d="M55 316c22-27 69-37 100-18 22 14 12 44-18 54-38 13-75 14-89-8-7-10-4-20 7-28z"/>
    <path d="M351 355c34-19 80-13 101 11 16 19-2 44-31 45-39 1-75-8-80-31-2-10 2-19 10-25z"/>
    <circle cx="247" cy="83" r="35"/>
    <circle cx="111" cy="224" r="27"/>
    <circle cx="420" cy="230" r="26"/>
    <circle cx="257" cy="430" r="30"/>
  </g>
  <path d="M377 214c24-18 61-13 73 11 9 19-11 38-36 37-28-1-53-12-52-30 1-7 6-13 15-18z" fill="#f59e0b" stroke="#fff" stroke-width="8"/>
  <g fill="none" stroke="#163a63" stroke-width="26" stroke-linecap="round" stroke-linejoin="round">
    <circle cx="260" cy="167" r="22" fill="#163a63" stroke="none"/>
    <path d="M251 194l-24 75 39 55"/>
    <path d="M239 221l-66 27"/>
    <path d="M246 207l65-56 35-29"/>
    <path d="M266 324l-51 75"/>
    <path d="M267 324l64 58"/>
  </g>
  <circle cx="92" cy="120" r="10" fill="#fff"/><circle cx="383" cy="108" r="10" fill="#fff"/>
  <circle cx="247" cy="83" r="9" fill="#fff"/><circle cx="111" cy="224" r="8" fill="#fff"/>
  <circle cx="420" cy="230" r="8" fill="#fff"/><circle cx="257" cy="430" r="8" fill="#fff"/>
  <circle cx="410" cy="233" r="8" fill="#fff"/>
</svg>
